<mxfile host="app.diagrams.net" modified="2023-04-03T05:19:06.883Z" agent="Mozilla/5.0 (Windows NT 10.0; Win64; x64) AppleWebKit/537.36 (KHTML, like Gecko) Chrome/111.0.0.0 Safari/537.36" etag="Rsx1XbXre3P5puSMrdTJ" version="21.1.2" type="device">
  <diagram name="Page-1" id="szWwLRSJxsTS-_Eb9bwb">
    <mxGraphModel dx="2222" dy="657" grid="1" gridSize="10" guides="1" tooltips="1" connect="1" arrows="1" fold="1" page="1" pageScale="1" pageWidth="850" pageHeight="1100" math="0" shadow="0">
      <root>
        <mxCell id="0" />
        <mxCell id="1" parent="0" />
        <mxCell id="R7j8mlrafb3kkN7GA1M--1" value="Invoice_DIM" style="swimlane;fontStyle=0;childLayout=stackLayout;horizontal=1;startSize=30;horizontalStack=0;resizeParent=1;resizeParentMax=0;resizeLast=0;collapsible=1;marginBottom=0;whiteSpace=wrap;html=1;" vertex="1" parent="1">
          <mxGeometry x="-90" y="300" width="190" height="90" as="geometry" />
        </mxCell>
        <mxCell id="R7j8mlrafb3kkN7GA1M--2" value="Invoice_Key&lt;span style=&quot;white-space: pre;&quot;&gt;	&lt;span style=&quot;white-space: pre;&quot;&gt;	&lt;/span&gt;&lt;span style=&quot;white-space: pre;&quot;&gt;	&lt;/span&gt;&lt;span style=&quot;white-space: pre;&quot;&gt;	&lt;/span&gt;&lt;/span&gt;PK" style="text;strokeColor=none;fillColor=none;align=left;verticalAlign=middle;spacingLeft=4;spacingRight=4;overflow=hidden;points=[[0,0.5],[1,0.5]];portConstraint=eastwest;rotatable=0;whiteSpace=wrap;html=1;" vertex="1" parent="R7j8mlrafb3kkN7GA1M--1">
          <mxGeometry y="30" width="190" height="30" as="geometry" />
        </mxCell>
        <mxCell id="R7j8mlrafb3kkN7GA1M--3" value="InvoiceNo&lt;span style=&quot;white-space: pre;&quot;&gt;	&lt;/span&gt;&lt;span style=&quot;white-space: pre;&quot;&gt;	&lt;/span&gt;&lt;span style=&quot;white-space: pre;&quot;&gt;	&lt;/span&gt;&lt;span style=&quot;white-space: pre;&quot;&gt;	&lt;/span&gt;NK" style="text;strokeColor=none;fillColor=none;align=left;verticalAlign=middle;spacingLeft=4;spacingRight=4;overflow=hidden;points=[[0,0.5],[1,0.5]];portConstraint=eastwest;rotatable=0;whiteSpace=wrap;html=1;" vertex="1" parent="R7j8mlrafb3kkN7GA1M--1">
          <mxGeometry y="60" width="190" height="30" as="geometry" />
        </mxCell>
        <mxCell id="R7j8mlrafb3kkN7GA1M--9" value="StockCode_DIM" style="swimlane;fontStyle=0;childLayout=stackLayout;horizontal=1;startSize=30;horizontalStack=0;resizeParent=1;resizeParentMax=0;resizeLast=0;collapsible=1;marginBottom=0;whiteSpace=wrap;html=1;" vertex="1" parent="1">
          <mxGeometry x="-110" y="600" width="190" height="120" as="geometry" />
        </mxCell>
        <mxCell id="R7j8mlrafb3kkN7GA1M--10" value="Stock_Key&lt;span style=&quot;white-space: pre;&quot;&gt;	&lt;span style=&quot;white-space: pre;&quot;&gt;	&lt;/span&gt;&lt;span style=&quot;white-space: pre;&quot;&gt;	&lt;/span&gt;&lt;span style=&quot;white-space: pre;&quot;&gt;	&lt;/span&gt;&lt;/span&gt;PK" style="text;strokeColor=none;fillColor=none;align=left;verticalAlign=middle;spacingLeft=4;spacingRight=4;overflow=hidden;points=[[0,0.5],[1,0.5]];portConstraint=eastwest;rotatable=0;whiteSpace=wrap;html=1;" vertex="1" parent="R7j8mlrafb3kkN7GA1M--9">
          <mxGeometry y="30" width="190" height="30" as="geometry" />
        </mxCell>
        <mxCell id="R7j8mlrafb3kkN7GA1M--11" value="StockCode&lt;span style=&quot;white-space: pre;&quot;&gt;	&lt;/span&gt;&lt;span style=&quot;white-space: pre;&quot;&gt;	&lt;/span&gt;&lt;span style=&quot;white-space: pre;&quot;&gt;	&lt;/span&gt;&lt;span style=&quot;white-space: pre;&quot;&gt;	&lt;/span&gt;NK" style="text;strokeColor=none;fillColor=none;align=left;verticalAlign=middle;spacingLeft=4;spacingRight=4;overflow=hidden;points=[[0,0.5],[1,0.5]];portConstraint=eastwest;rotatable=0;whiteSpace=wrap;html=1;" vertex="1" parent="R7j8mlrafb3kkN7GA1M--9">
          <mxGeometry y="60" width="190" height="30" as="geometry" />
        </mxCell>
        <mxCell id="R7j8mlrafb3kkN7GA1M--12" value="Description" style="text;strokeColor=none;fillColor=none;align=left;verticalAlign=middle;spacingLeft=4;spacingRight=4;overflow=hidden;points=[[0,0.5],[1,0.5]];portConstraint=eastwest;rotatable=0;whiteSpace=wrap;html=1;" vertex="1" parent="R7j8mlrafb3kkN7GA1M--9">
          <mxGeometry y="90" width="190" height="30" as="geometry" />
        </mxCell>
        <mxCell id="R7j8mlrafb3kkN7GA1M--13" value="Date_DIM" style="swimlane;fontStyle=0;childLayout=stackLayout;horizontal=1;startSize=30;horizontalStack=0;resizeParent=1;resizeParentMax=0;resizeLast=0;collapsible=1;marginBottom=0;whiteSpace=wrap;html=1;" vertex="1" parent="1">
          <mxGeometry x="730" y="300" width="190" height="90" as="geometry" />
        </mxCell>
        <mxCell id="R7j8mlrafb3kkN7GA1M--14" value="Date_Key&lt;span style=&quot;white-space: pre;&quot;&gt;	&lt;span style=&quot;white-space: pre;&quot;&gt;	&lt;/span&gt;&lt;span style=&quot;white-space: pre;&quot;&gt;	&lt;/span&gt;&lt;span style=&quot;white-space: pre;&quot;&gt;	&lt;/span&gt;&lt;/span&gt;PK" style="text;strokeColor=none;fillColor=none;align=left;verticalAlign=middle;spacingLeft=4;spacingRight=4;overflow=hidden;points=[[0,0.5],[1,0.5]];portConstraint=eastwest;rotatable=0;whiteSpace=wrap;html=1;" vertex="1" parent="R7j8mlrafb3kkN7GA1M--13">
          <mxGeometry y="30" width="190" height="30" as="geometry" />
        </mxCell>
        <mxCell id="R7j8mlrafb3kkN7GA1M--15" value="Date&lt;span style=&quot;white-space: pre;&quot;&gt;	&lt;/span&gt;&lt;span style=&quot;white-space: pre;&quot;&gt;	&lt;/span&gt;&lt;span style=&quot;white-space: pre;&quot;&gt;	&lt;/span&gt;&lt;span style=&quot;white-space: pre;&quot;&gt;	&lt;/span&gt;&lt;span style=&quot;white-space: pre;&quot;&gt;	&lt;/span&gt;NK" style="text;strokeColor=none;fillColor=none;align=left;verticalAlign=middle;spacingLeft=4;spacingRight=4;overflow=hidden;points=[[0,0.5],[1,0.5]];portConstraint=eastwest;rotatable=0;whiteSpace=wrap;html=1;" vertex="1" parent="R7j8mlrafb3kkN7GA1M--13">
          <mxGeometry y="60" width="190" height="30" as="geometry" />
        </mxCell>
        <mxCell id="R7j8mlrafb3kkN7GA1M--17" value="Customer_DIM" style="swimlane;fontStyle=0;childLayout=stackLayout;horizontal=1;startSize=30;horizontalStack=0;resizeParent=1;resizeParentMax=0;resizeLast=0;collapsible=1;marginBottom=0;whiteSpace=wrap;html=1;" vertex="1" parent="1">
          <mxGeometry x="680" y="610" width="190" height="120" as="geometry" />
        </mxCell>
        <mxCell id="R7j8mlrafb3kkN7GA1M--18" value="Customer_Key&lt;span style=&quot;white-space: pre;&quot;&gt;&lt;span style=&quot;white-space: pre;&quot;&gt;	&lt;/span&gt;&lt;span style=&quot;white-space: pre;&quot;&gt;	&lt;/span&gt;&lt;span style=&quot;white-space: pre;&quot;&gt;	&lt;/span&gt;&lt;/span&gt;PK" style="text;strokeColor=none;fillColor=none;align=left;verticalAlign=middle;spacingLeft=4;spacingRight=4;overflow=hidden;points=[[0,0.5],[1,0.5]];portConstraint=eastwest;rotatable=0;whiteSpace=wrap;html=1;" vertex="1" parent="R7j8mlrafb3kkN7GA1M--17">
          <mxGeometry y="30" width="190" height="30" as="geometry" />
        </mxCell>
        <mxCell id="R7j8mlrafb3kkN7GA1M--19" value="Customer_ID&lt;span style=&quot;white-space: pre;&quot;&gt;	&lt;/span&gt;&lt;span style=&quot;white-space: pre;&quot;&gt;	&lt;/span&gt;&lt;span style=&quot;white-space: pre;&quot;&gt;	&lt;/span&gt;&lt;span style=&quot;white-space: pre;&quot;&gt;	&lt;/span&gt;NK" style="text;strokeColor=none;fillColor=none;align=left;verticalAlign=middle;spacingLeft=4;spacingRight=4;overflow=hidden;points=[[0,0.5],[1,0.5]];portConstraint=eastwest;rotatable=0;whiteSpace=wrap;html=1;" vertex="1" parent="R7j8mlrafb3kkN7GA1M--17">
          <mxGeometry y="60" width="190" height="30" as="geometry" />
        </mxCell>
        <mxCell id="R7j8mlrafb3kkN7GA1M--20" value="Country" style="text;strokeColor=none;fillColor=none;align=left;verticalAlign=middle;spacingLeft=4;spacingRight=4;overflow=hidden;points=[[0,0.5],[1,0.5]];portConstraint=eastwest;rotatable=0;whiteSpace=wrap;html=1;" vertex="1" parent="R7j8mlrafb3kkN7GA1M--17">
          <mxGeometry y="90" width="190" height="30" as="geometry" />
        </mxCell>
        <mxCell id="R7j8mlrafb3kkN7GA1M--21" value="Quantity_Fact" style="swimlane;fontStyle=0;childLayout=stackLayout;horizontal=1;startSize=30;horizontalStack=0;resizeParent=1;resizeParentMax=0;resizeLast=0;collapsible=1;marginBottom=0;whiteSpace=wrap;html=1;" vertex="1" parent="1">
          <mxGeometry x="310" y="270" width="190" height="180" as="geometry" />
        </mxCell>
        <mxCell id="R7j8mlrafb3kkN7GA1M--25" value="Invoice_Key&lt;span style=&quot;white-space: pre;&quot;&gt;	&lt;/span&gt;&lt;span style=&quot;white-space: pre;&quot;&gt;	&lt;/span&gt;&lt;span style=&quot;white-space: pre;&quot;&gt;	&lt;/span&gt;&lt;span style=&quot;white-space: pre;&quot;&gt;	&lt;/span&gt;FK" style="text;strokeColor=none;fillColor=none;align=left;verticalAlign=middle;spacingLeft=4;spacingRight=4;overflow=hidden;points=[[0,0.5],[1,0.5]];portConstraint=eastwest;rotatable=0;whiteSpace=wrap;html=1;" vertex="1" parent="R7j8mlrafb3kkN7GA1M--21">
          <mxGeometry y="30" width="190" height="30" as="geometry" />
        </mxCell>
        <mxCell id="R7j8mlrafb3kkN7GA1M--26" value="Stock_Key&lt;span style=&quot;white-space: pre;&quot;&gt;	&lt;/span&gt;&lt;span style=&quot;white-space: pre;&quot;&gt;	&lt;/span&gt;&lt;span style=&quot;white-space: pre;&quot;&gt;	&lt;/span&gt;&lt;span style=&quot;white-space: pre;&quot;&gt;	&lt;/span&gt;FK" style="text;strokeColor=none;fillColor=none;align=left;verticalAlign=middle;spacingLeft=4;spacingRight=4;overflow=hidden;points=[[0,0.5],[1,0.5]];portConstraint=eastwest;rotatable=0;whiteSpace=wrap;html=1;" vertex="1" parent="R7j8mlrafb3kkN7GA1M--21">
          <mxGeometry y="60" width="190" height="30" as="geometry" />
        </mxCell>
        <mxCell id="R7j8mlrafb3kkN7GA1M--27" value="Customer_Key&lt;span style=&quot;white-space: pre;&quot;&gt;	&lt;/span&gt;&lt;span style=&quot;white-space: pre;&quot;&gt;	&lt;/span&gt;&lt;span style=&quot;white-space: pre;&quot;&gt;	&lt;/span&gt;FK" style="text;strokeColor=none;fillColor=none;align=left;verticalAlign=middle;spacingLeft=4;spacingRight=4;overflow=hidden;points=[[0,0.5],[1,0.5]];portConstraint=eastwest;rotatable=0;whiteSpace=wrap;html=1;" vertex="1" parent="R7j8mlrafb3kkN7GA1M--21">
          <mxGeometry y="90" width="190" height="30" as="geometry" />
        </mxCell>
        <mxCell id="R7j8mlrafb3kkN7GA1M--28" value="Date_Key&lt;span style=&quot;white-space: pre;&quot;&gt;	&lt;/span&gt;&lt;span style=&quot;white-space: pre;&quot;&gt;	&lt;/span&gt;&lt;span style=&quot;white-space: pre;&quot;&gt;	&lt;/span&gt;&lt;span style=&quot;white-space: pre;&quot;&gt;	&lt;/span&gt;FK" style="text;strokeColor=none;fillColor=none;align=left;verticalAlign=middle;spacingLeft=4;spacingRight=4;overflow=hidden;points=[[0,0.5],[1,0.5]];portConstraint=eastwest;rotatable=0;whiteSpace=wrap;html=1;" vertex="1" parent="R7j8mlrafb3kkN7GA1M--21">
          <mxGeometry y="120" width="190" height="30" as="geometry" />
        </mxCell>
        <mxCell id="R7j8mlrafb3kkN7GA1M--22" value="Quantity&lt;span style=&quot;white-space: pre;&quot;&gt;	&lt;/span&gt;&lt;span style=&quot;white-space: pre;&quot;&gt;	&lt;/span&gt;&lt;span style=&quot;white-space: pre;&quot;&gt;	&lt;/span&gt;&lt;span style=&quot;white-space: pre;&quot;&gt;	&lt;/span&gt;&lt;span style=&quot;white-space: pre;&quot;&gt;	&lt;/span&gt;INT" style="text;strokeColor=none;fillColor=none;align=left;verticalAlign=middle;spacingLeft=4;spacingRight=4;overflow=hidden;points=[[0,0.5],[1,0.5]];portConstraint=eastwest;rotatable=0;whiteSpace=wrap;html=1;" vertex="1" parent="R7j8mlrafb3kkN7GA1M--21">
          <mxGeometry y="150" width="190" height="30" as="geometry" />
        </mxCell>
        <mxCell id="R7j8mlrafb3kkN7GA1M--29" value="Price_Fact" style="swimlane;fontStyle=0;childLayout=stackLayout;horizontal=1;startSize=30;horizontalStack=0;resizeParent=1;resizeParentMax=0;resizeLast=0;collapsible=1;marginBottom=0;whiteSpace=wrap;html=1;" vertex="1" parent="1">
          <mxGeometry x="310" y="570" width="190" height="180" as="geometry" />
        </mxCell>
        <mxCell id="R7j8mlrafb3kkN7GA1M--30" value="Invoice_Key&lt;span style=&quot;white-space: pre;&quot;&gt;	&lt;/span&gt;&lt;span style=&quot;white-space: pre;&quot;&gt;	&lt;/span&gt;&lt;span style=&quot;white-space: pre;&quot;&gt;	&lt;/span&gt;&lt;span style=&quot;white-space: pre;&quot;&gt;	&lt;/span&gt;FK" style="text;strokeColor=none;fillColor=none;align=left;verticalAlign=middle;spacingLeft=4;spacingRight=4;overflow=hidden;points=[[0,0.5],[1,0.5]];portConstraint=eastwest;rotatable=0;whiteSpace=wrap;html=1;" vertex="1" parent="R7j8mlrafb3kkN7GA1M--29">
          <mxGeometry y="30" width="190" height="30" as="geometry" />
        </mxCell>
        <mxCell id="R7j8mlrafb3kkN7GA1M--31" value="Stock_Key&lt;span style=&quot;white-space: pre;&quot;&gt;	&lt;/span&gt;&lt;span style=&quot;white-space: pre;&quot;&gt;	&lt;/span&gt;&lt;span style=&quot;white-space: pre;&quot;&gt;	&lt;/span&gt;&lt;span style=&quot;white-space: pre;&quot;&gt;	&lt;/span&gt;FK" style="text;strokeColor=none;fillColor=none;align=left;verticalAlign=middle;spacingLeft=4;spacingRight=4;overflow=hidden;points=[[0,0.5],[1,0.5]];portConstraint=eastwest;rotatable=0;whiteSpace=wrap;html=1;" vertex="1" parent="R7j8mlrafb3kkN7GA1M--29">
          <mxGeometry y="60" width="190" height="30" as="geometry" />
        </mxCell>
        <mxCell id="R7j8mlrafb3kkN7GA1M--32" value="Customer_Key&lt;span style=&quot;white-space: pre;&quot;&gt;	&lt;/span&gt;&lt;span style=&quot;white-space: pre;&quot;&gt;	&lt;/span&gt;&lt;span style=&quot;white-space: pre;&quot;&gt;	&lt;/span&gt;FK" style="text;strokeColor=none;fillColor=none;align=left;verticalAlign=middle;spacingLeft=4;spacingRight=4;overflow=hidden;points=[[0,0.5],[1,0.5]];portConstraint=eastwest;rotatable=0;whiteSpace=wrap;html=1;" vertex="1" parent="R7j8mlrafb3kkN7GA1M--29">
          <mxGeometry y="90" width="190" height="30" as="geometry" />
        </mxCell>
        <mxCell id="R7j8mlrafb3kkN7GA1M--33" value="Date_Key&lt;span style=&quot;white-space: pre;&quot;&gt;	&lt;/span&gt;&lt;span style=&quot;white-space: pre;&quot;&gt;	&lt;/span&gt;&lt;span style=&quot;white-space: pre;&quot;&gt;	&lt;/span&gt;&lt;span style=&quot;white-space: pre;&quot;&gt;	&lt;/span&gt;FK" style="text;strokeColor=none;fillColor=none;align=left;verticalAlign=middle;spacingLeft=4;spacingRight=4;overflow=hidden;points=[[0,0.5],[1,0.5]];portConstraint=eastwest;rotatable=0;whiteSpace=wrap;html=1;" vertex="1" parent="R7j8mlrafb3kkN7GA1M--29">
          <mxGeometry y="120" width="190" height="30" as="geometry" />
        </mxCell>
        <mxCell id="R7j8mlrafb3kkN7GA1M--34" value="Price&lt;span style=&quot;white-space: pre;&quot;&gt;	&lt;/span&gt;&lt;span style=&quot;white-space: pre;&quot;&gt;	&lt;/span&gt;&lt;span style=&quot;white-space: pre;&quot;&gt;	&lt;/span&gt;&lt;span style=&quot;white-space: pre;&quot;&gt;	&amp;nbsp;&lt;/span&gt;&amp;nbsp; &amp;nbsp;Float" style="text;strokeColor=none;fillColor=none;align=left;verticalAlign=middle;spacingLeft=4;spacingRight=4;overflow=hidden;points=[[0,0.5],[1,0.5]];portConstraint=eastwest;rotatable=0;whiteSpace=wrap;html=1;" vertex="1" parent="R7j8mlrafb3kkN7GA1M--29">
          <mxGeometry y="150" width="190" height="30" as="geometry" />
        </mxCell>
        <mxCell id="R7j8mlrafb3kkN7GA1M--36" value="" style="endArrow=none;html=1;rounded=0;exitX=-0.013;exitY=0.322;exitDx=0;exitDy=0;exitPerimeter=0;startArrow=classic;startFill=1;entryX=1.012;entryY=0.543;entryDx=0;entryDy=0;entryPerimeter=0;" edge="1" parent="1" source="R7j8mlrafb3kkN7GA1M--31" target="R7j8mlrafb3kkN7GA1M--3">
          <mxGeometry width="50" height="50" relative="1" as="geometry">
            <mxPoint x="170" y="430" as="sourcePoint" />
            <mxPoint x="200" y="360" as="targetPoint" />
            <Array as="points">
              <mxPoint x="200" y="640" />
              <mxPoint x="200" y="376" />
            </Array>
          </mxGeometry>
        </mxCell>
        <mxCell id="R7j8mlrafb3kkN7GA1M--35" value="" style="endArrow=none;html=1;rounded=0;exitX=-0.018;exitY=0.933;exitDx=0;exitDy=0;exitPerimeter=0;startArrow=classic;startFill=1;entryX=0.993;entryY=0.931;entryDx=0;entryDy=0;entryPerimeter=0;" edge="1" parent="1" source="R7j8mlrafb3kkN7GA1M--26" target="R7j8mlrafb3kkN7GA1M--2">
          <mxGeometry width="50" height="50" relative="1" as="geometry">
            <mxPoint x="210" y="320" as="sourcePoint" />
            <mxPoint x="100" y="360" as="targetPoint" />
            <Array as="points">
              <mxPoint x="160" y="358" />
            </Array>
          </mxGeometry>
        </mxCell>
        <mxCell id="R7j8mlrafb3kkN7GA1M--38" value="" style="endArrow=none;html=1;rounded=0;exitX=-0.009;exitY=0.267;exitDx=0;exitDy=0;exitPerimeter=0;entryX=1.013;entryY=-0.011;entryDx=0;entryDy=0;entryPerimeter=0;startArrow=classic;startFill=1;" edge="1" parent="1" source="R7j8mlrafb3kkN7GA1M--28" target="R7j8mlrafb3kkN7GA1M--11">
          <mxGeometry width="50" height="50" relative="1" as="geometry">
            <mxPoint x="300" y="400" as="sourcePoint" />
            <mxPoint x="120" y="680" as="targetPoint" />
            <Array as="points">
              <mxPoint x="220" y="400" />
              <mxPoint x="220" y="660" />
            </Array>
          </mxGeometry>
        </mxCell>
        <mxCell id="R7j8mlrafb3kkN7GA1M--37" value="" style="endArrow=none;html=1;rounded=0;exitX=-0.009;exitY=0.017;exitDx=0;exitDy=0;exitPerimeter=0;entryX=1;entryY=0;entryDx=0;entryDy=0;entryPerimeter=0;startArrow=classic;startFill=1;" edge="1" parent="1" source="R7j8mlrafb3kkN7GA1M--33" target="R7j8mlrafb3kkN7GA1M--12">
          <mxGeometry width="50" height="50" relative="1" as="geometry">
            <mxPoint x="170" y="660" as="sourcePoint" />
            <mxPoint x="120" y="710" as="targetPoint" />
            <Array as="points">
              <mxPoint x="190" y="691" />
            </Array>
          </mxGeometry>
        </mxCell>
        <mxCell id="R7j8mlrafb3kkN7GA1M--40" value="" style="endArrow=classic;html=1;rounded=0;exitX=0;exitY=0.25;exitDx=0;exitDy=0;entryX=1.013;entryY=0.683;entryDx=0;entryDy=0;entryPerimeter=0;" edge="1" parent="1" source="R7j8mlrafb3kkN7GA1M--13" target="R7j8mlrafb3kkN7GA1M--25">
          <mxGeometry width="50" height="50" relative="1" as="geometry">
            <mxPoint x="580" y="350" as="sourcePoint" />
            <mxPoint x="630" y="300" as="targetPoint" />
          </mxGeometry>
        </mxCell>
        <mxCell id="R7j8mlrafb3kkN7GA1M--41" value="" style="endArrow=classic;html=1;rounded=0;exitX=0;exitY=0.033;exitDx=0;exitDy=0;exitPerimeter=0;entryX=1;entryY=0.5;entryDx=0;entryDy=0;" edge="1" parent="1" source="R7j8mlrafb3kkN7GA1M--15" target="R7j8mlrafb3kkN7GA1M--30">
          <mxGeometry width="50" height="50" relative="1" as="geometry">
            <mxPoint x="540" y="430" as="sourcePoint" />
            <mxPoint x="590" y="380" as="targetPoint" />
            <Array as="points">
              <mxPoint x="600" y="360" />
              <mxPoint x="600" y="615" />
            </Array>
          </mxGeometry>
        </mxCell>
        <mxCell id="R7j8mlrafb3kkN7GA1M--42" value="" style="endArrow=classic;html=1;rounded=0;exitX=0;exitY=0.5;exitDx=0;exitDy=0;entryX=0.997;entryY=0.849;entryDx=0;entryDy=0;entryPerimeter=0;" edge="1" parent="1" source="R7j8mlrafb3kkN7GA1M--19" target="R7j8mlrafb3kkN7GA1M--32">
          <mxGeometry width="50" height="50" relative="1" as="geometry">
            <mxPoint x="600" y="620" as="sourcePoint" />
            <mxPoint x="650" y="570" as="targetPoint" />
          </mxGeometry>
        </mxCell>
        <mxCell id="R7j8mlrafb3kkN7GA1M--43" value="" style="endArrow=classic;html=1;rounded=0;entryX=1;entryY=0.5;entryDx=0;entryDy=0;exitX=-0.006;exitY=0.003;exitDx=0;exitDy=0;exitPerimeter=0;" edge="1" parent="1" source="R7j8mlrafb3kkN7GA1M--19" target="R7j8mlrafb3kkN7GA1M--28">
          <mxGeometry width="50" height="50" relative="1" as="geometry">
            <mxPoint x="610" y="520" as="sourcePoint" />
            <mxPoint x="660" y="470" as="targetPoint" />
            <Array as="points">
              <mxPoint x="640" y="670" />
              <mxPoint x="640" y="405" />
            </Array>
          </mxGeometry>
        </mxCell>
      </root>
    </mxGraphModel>
  </diagram>
</mxfile>
